<?xml version="1.0" encoding="UTF-8"?>
<svg fill="#F2F2F2" width="100pt" height="100pt" version="1.1" viewBox="0 0 100 100" xmlns="http://www.w3.org/2000/svg">
 <path d="m66.699 45.102h-13.199l9.3008-32.301c0.19922-0.60156 0.19922-1.8984-1.1016-2.6016-0.30078-0.19922-0.60156-0.19922-1-0.19922-1.1016 0-1.8008 0.89844-1.8008 1l-28.297 38.801c0 0.10156-0.69922 1.3008-0.30078 3.1016 0.5 1.8984 2.6016 2.1016 2.6992 2.1016h14.102l-9.3008 32.301c-0.19922 0.60156-0.19922 1.8008 1 2.3984 0.30078 0.19922 0.69922 0.30078 1.1016 0.30078 1.1016 0 1.6992-0.89844 1.8008-0.89844l27.5-39.102c0-0.10156 1.1016-1.5 0.30078-3.1016-0.80469-2.0039-2.7031-1.8008-2.8047-1.8008z"/>
</svg>
