<?xml version="1.0" encoding="UTF-8"?>
<!-- Generated by Pixelmator Pro 3.7 -->
<svg width="1080" height="417" viewBox="0 0 1080 417" xmlns="http://www.w3.org/2000/svg">
    <g id="Group">
        <path id="SQUADBOX" fill="#ffffff" fill-rule="evenodd" stroke="none" d="M 883.138062 200.905579 L 849.645264 106.23999 L 881.754028 106.23999 L 902.237244 168.796814 L 902.790833 168.796814 L 923.827637 106.23999 L 952.614868 106.23999 L 919.12207 200.905579 L 954.275635 300 L 922.16687 300 L 900.022827 232.460815 L 899.469238 232.460815 L 876.771667 300 L 847.984436 300 Z M 799.616028 302.768005 C 784.668762 302.768005 773.227783 298.523773 765.292847 290.035217 C 757.357849 281.546631 753.390442 269.552063 753.390442 254.051208 L 753.390442 152.188782 C 753.390442 136.687927 757.357849 124.693359 765.292847 116.204834 C 773.227783 107.716187 784.668762 103.471985 799.616028 103.471985 C 814.563293 103.471985 826.004272 107.716187 833.939209 116.204834 C 841.874207 124.693359 845.841614 136.687927 845.841614 152.188782 L 845.841614 254.051208 C 845.841614 269.552063 841.874207 281.546631 833.939209 290.035217 C 826.004272 298.523773 814.563293 302.768005 799.616028 302.768005 Z M 799.616028 275.088013 C 810.13446 275.088013 815.393616 268.72168 815.393616 255.9888 L 815.393616 150.251221 C 815.393616 137.518311 810.13446 131.151978 799.616028 131.151978 C 789.097595 131.151978 783.83844 137.518311 783.83844 150.251221 L 783.83844 255.9888 C 783.83844 268.72168 789.097595 275.088013 799.616028 275.088013 Z M 649.385193 106.23999 L 695.333984 106.23999 C 711.019409 106.23999 722.460388 109.884521 729.657227 117.173584 C 736.854065 124.462708 740.452393 135.672974 740.452393 150.80481 L 740.452393 158.555176 C 740.452393 168.52002 738.837769 176.639404 735.608398 182.913574 C 732.379089 189.187744 727.442871 193.708801 720.799622 196.476807 L 720.799622 197.030396 C 735.931396 202.197388 743.497192 215.668152 743.497192 237.443237 L 743.497192 254.051208 C 743.497192 268.998474 739.575928 280.393311 731.733215 288.235992 C 723.890503 296.078705 712.403442 300 697.271606 300 L 649.385193 300 Z M 691.735596 185.127991 C 697.825256 185.127991 702.392395 183.559448 705.437195 180.422363 C 708.482056 177.285339 710.004395 172.026184 710.004395 164.644775 L 710.004395 153.849609 C 710.004395 146.83728 708.75885 141.762695 706.267639 138.62561 C 703.776428 135.488525 699.855103 133.919983 694.503601 133.919983 L 679.833191 133.919983 L 679.833191 185.127991 Z M 697.271606 272.320007 C 702.623108 272.320007 706.590515 270.889893 709.174011 268.029602 C 711.757507 265.169312 713.049194 260.233093 713.049194 253.220795 L 713.049194 236.335999 C 713.049194 227.478394 711.526855 221.342651 708.481995 217.928833 C 705.437195 214.514893 700.408691 212.807983 693.396423 212.807983 L 679.833191 212.807983 L 679.833191 272.320007 Z M 542.612 106.23999 L 589.11438 106.23999 C 604.246216 106.23999 615.59491 110.299683 623.160828 118.419189 C 630.726685 126.538696 634.509583 138.440979 634.509583 154.126404 L 634.509583 252.113586 C 634.509583 267.799011 630.726685 279.701294 623.160828 287.820801 C 615.59491 295.940308 604.246216 300 589.11438 300 L 542.612 300 Z M 588.560791 272.320007 C 593.543213 272.320007 597.372253 270.84375 600.047974 267.891205 C 602.723755 264.93866 604.061584 260.140839 604.061584 253.49762 L 604.061584 152.742432 C 604.061584 146.099182 602.723755 141.301331 600.047974 138.348816 C 597.372253 135.39624 593.543213 133.919983 588.560791 133.919983 L 573.059998 133.919983 L 573.059998 272.320007 Z M 460.750793 106.23999 L 501.993988 106.23999 L 533.549194 300 L 503.101196 300 L 497.565186 261.524811 L 497.565186 262.0784 L 462.965179 262.0784 L 457.429199 300 L 429.195587 300 Z M 493.966797 235.78241 L 480.403595 140.009583 L 479.849976 140.009583 L 466.563599 235.78241 Z M 376.398376 302.768005 C 361.63562 302.768005 350.379211 298.569916 342.628784 290.173584 C 334.878326 281.777283 331.003174 269.736603 331.003174 254.051208 L 331.003174 106.23999 L 361.451172 106.23999 L 361.451172 256.265594 C 361.451172 262.908844 362.789032 267.706665 365.464783 270.65921 C 368.140533 273.611755 371.969543 275.088013 376.951965 275.088013 C 381.934387 275.088013 385.763428 273.611755 388.439178 270.65921 C 391.114929 267.706665 392.452759 262.908844 392.452759 256.265594 L 392.452759 106.23999 L 421.793579 106.23999 L 421.793579 254.051208 C 421.793579 269.736603 417.918396 281.777283 410.167969 290.173584 C 402.417542 298.569916 391.161102 302.768005 376.398376 302.768005 Z M 316.681152 317.992004 C 302.841095 317.992004 294.352661 311.810181 291.215576 299.446411 C 285.494995 301.660828 278.759583 302.768005 271.009155 302.768005 C 256.06189 302.768005 244.620926 298.523773 236.685959 290.035217 C 228.750992 281.546631 224.783554 269.552063 224.783554 254.051208 L 224.783554 152.188782 C 224.783554 136.687927 228.750992 124.693359 236.685959 116.204834 C 244.620926 107.716187 256.06189 103.471985 271.009155 103.471985 C 285.956421 103.471985 297.3974 107.716187 305.332336 116.204834 C 313.267334 124.693359 317.234772 136.687927 317.234772 152.188782 L 317.234772 254.051208 C 317.234772 266.968597 314.374512 277.579163 308.653961 285.883209 C 309.761169 287.728546 311.145142 288.927979 312.805969 289.481598 C 314.466766 290.035217 316.865662 290.312012 320.002747 290.312012 L 324.708344 290.312012 L 324.708344 317.992004 L 316.681152 317.992004 Z M 271.009155 275.088013 C 281.527618 275.088013 286.786743 268.72168 286.786743 255.9888 L 286.786743 150.251221 C 286.786743 137.518311 281.527618 131.151978 271.009155 131.151978 C 260.490723 131.151978 255.231552 137.518311 255.231552 150.251221 L 255.231552 255.9888 C 255.231552 268.72168 260.490723 275.088013 271.009155 275.088013 Z M 169.218353 302.768005 C 154.455597 302.768005 143.291443 298.569916 135.725555 290.173584 C 128.159637 281.777283 124.376747 269.736603 124.376747 254.051208 L 124.376747 242.979187 L 153.16394 242.979187 L 153.16394 256.265594 C 153.16394 268.813934 158.423096 275.088013 168.941544 275.088013 C 174.108505 275.088013 178.0298 273.565613 180.705536 270.520813 C 183.381287 267.475983 184.719147 262.539764 184.719147 255.712006 C 184.719147 247.592499 182.87384 240.441895 179.183136 234.26001 C 175.492462 228.078125 168.664795 220.650696 158.699951 211.9776 C 146.151611 200.905518 137.386368 190.894714 132.403946 181.944824 C 127.421516 172.994873 124.930344 162.891785 124.930344 151.635193 C 124.930344 136.318848 128.805511 124.462708 136.555939 116.066406 C 144.306381 107.670105 155.562805 103.471985 170.325546 103.471985 C 184.903748 103.471985 195.929504 107.670105 203.403137 116.066406 C 210.876785 124.462708 214.613541 136.503418 214.613541 152.188782 L 214.613541 160.216003 L 185.826355 160.216003 L 185.826355 150.251221 C 185.826355 143.607971 184.534622 138.764038 181.951141 135.719177 C 179.367676 132.674377 175.584778 131.151978 170.602356 131.151978 C 160.452957 131.151978 155.378342 137.333801 155.378342 149.697632 C 155.378342 156.7099 157.269791 163.260742 161.052734 169.350403 C 164.835693 175.440063 171.709503 182.821289 181.674347 191.494385 C 194.407211 202.566467 203.172455 212.623413 207.970352 221.665588 C 212.768234 230.707764 215.167145 241.318359 215.167145 253.49762 C 215.167145 269.367554 211.24585 281.546631 203.403137 290.035217 C 195.56044 298.523773 184.165619 302.768005 169.218353 302.768005 Z"/>
        <path id="Rectangle-copy-2" fill="#ffffff" fill-rule="evenodd" stroke="none" d="M 1080 417 L 0 417 L 0 0 L 1080 0 L 1080 417 Z M 1032 364.042603 L 44 364.042603 L 44 48.08844 L 1032 48.08844 L 1032 364.042603 Z"/>
    </g>
</svg>
